<?xml version="1.0" encoding="UTF-8"?>
<svg version="1.1" xmlns="http://www.w3.org/2000/svg" width="795" height="823">
<path d="M0 0 C0.92981974 -0.00465992 1.85963947 -0.00931984 2.81763557 -0.01412097 C5.93868895 -0.02608813 9.05930841 -0.01666873 12.18036556 -0.00736332 C14.43839929 -0.01153546 16.69643092 -0.01701231 18.95445865 -0.02368313 C25.16376203 -0.03817185 31.37293307 -0.03388229 37.5822438 -0.02651632 C43.58951621 -0.02228025 49.59675542 -0.03208862 55.604018 -0.04142394 C68.64940245 -0.06109602 81.69474718 -0.06343731 94.74014293 -0.05822874 C106.15569758 -0.05367308 117.57123651 -0.05426886 128.98679066 -0.06006908 C130.51753998 -0.06082595 132.04828931 -0.06158193 133.57903863 -0.06233703 C135.88566886 -0.06348221 138.19229909 -0.06463209 140.49892931 -0.06579627 C161.94482117 -0.07650199 183.39070779 -0.08122566 204.83660126 -0.07332611 C205.6451124 -0.07302894 206.45362354 -0.07273176 207.28663501 -0.07242559 C213.85251002 -0.0699766 220.41838497 -0.06736504 226.98425991 -0.06474145 C252.60319644 -0.05463613 278.22206744 -0.06299954 303.84099483 -0.086236 C332.61795838 -0.11229452 361.39488247 -0.12516052 390.17185825 -0.11804825 C393.23872943 -0.11733217 396.30560062 -0.11665779 399.37247181 -0.1160078 C400.50520172 -0.11575309 400.50520172 -0.11575309 401.66081506 -0.11549323 C413.07060165 -0.11318821 424.48035166 -0.1211768 435.89013004 -0.13429928 C448.86117703 -0.1491907 461.83213815 -0.15008019 474.80318327 -0.13222837 C481.42461378 -0.12349108 488.04591585 -0.12164695 494.66734791 -0.13687992 C500.72392477 -0.15064131 506.78019555 -0.14607449 512.83675431 -0.12664068 C515.03246411 -0.12285403 517.22819793 -0.12587854 519.42388649 -0.13625234 C522.40006028 -0.1493182 525.37516125 -0.13793165 528.35128784 -0.12025452 C529.21110178 -0.12990503 530.07091573 -0.13955554 530.95678464 -0.14949849 C537.83294099 -0.06518199 541.45836852 2.17586062 546.30022335 7.13031673 C552.16666263 15.3750422 552.084492 23.39222971 552.00383663 33.12567806 C551.98773618 35.44097252 552.0037474 37.7545281 552.0228796 40.06976986 C552.02089735 41.56000804 552.01705406 43.05024514 552.01116085 44.54047298 C552.01723354 45.22295605 552.02330624 45.90543911 552.02956295 46.60860348 C551.81070929 61.75250734 536.89271002 72.27642728 526.9916296 82.20453548 C525.94056184 83.25984431 525.94056184 83.25984431 524.86826038 84.33647251 C521.1659073 88.05373927 517.46074743 91.76818015 513.75310421 95.48017025 C509.93909521 99.29967758 506.13446531 103.12838691 502.33193207 106.95931435 C499.39005997 109.91985538 496.44145724 112.87362325 493.49100208 115.82560825 C492.08558618 117.23403743 490.68265557 118.64495139 489.28234196 120.05845356 C487.32083933 122.03711894 485.3499678 124.00598367 483.37663937 125.97284603 C482.80860088 126.5500993 482.2405624 127.12735256 481.65531063 127.72209835 C474.6105534 134.69523594 468.3412141 138.52526245 458.31584835 138.47797298 C457.11057491 138.47475033 455.90530148 138.47152767 454.6635046 138.46820736 C453.40924679 138.45982845 452.15498898 138.45144955 450.86272335 138.44281673 C449.59299679 138.43830502 448.32327023 138.4337933 447.0150671 138.42914486 C443.88090499 138.41736229 440.74683794 138.4009109 437.61272335 138.38031673 C438.10687378 132.37868356 438.60938362 126.37815043 439.1478796 120.38031673 C439.23489132 119.39031673 439.32190304 118.40031673 439.41155148 117.38031673 C439.587363 115.37997229 439.76705252 113.3799649 439.95061398 111.38031673 C441.90768443 98.36765095 441.90768443 98.36765095 438.61272335 86.38031673 C434.87881349 84.53124881 431.84403263 84.12933266 427.70433807 84.12584114 C426.51372853 84.12000895 425.32311898 84.11417675 424.09643036 84.10816783 C422.14003212 84.11383681 422.14003212 84.11383681 420.14411068 84.11962032 C418.74163736 84.11659961 417.3391657 84.11271054 415.93669695 84.10802776 C412.08301392 84.09772866 408.22942373 84.09993442 404.37573302 84.10420835 C400.21955617 84.1066721 396.06340187 84.09766581 391.90723324 84.09017086 C383.76509205 84.07741223 375.62298382 84.0756316 367.48083431 84.07797112 C360.86391445 84.07975307 354.24700461 84.07800729 347.63008595 84.07374668 C346.21826639 84.0728539 346.21826639 84.0728539 344.77792523 84.07194308 C342.86594729 84.07073135 340.95396935 84.06951721 339.04199141 84.0683007 C321.10583572 84.05742076 303.16969883 84.05958986 285.23354208 84.06568555 C268.81937898 84.07085561 252.40527522 84.05959771 235.99112386 84.04058733 C219.14244608 84.02122306 202.29379639 84.01295041 185.4451074 84.01671058 C175.98368213 84.01862471 166.52230736 84.01611446 157.06089115 84.00199604 C149.0067128 83.99009928 140.95261605 83.98865819 132.89843661 84.00078621 C128.78833967 84.00668679 124.67839212 84.00774188 120.56830502 83.99578381 C116.80618482 83.98496521 113.04433946 83.98798007 109.28223234 84.00204549 C107.27573603 84.0059633 105.2692277 83.99511257 103.26275975 83.98374861 C102.06954245 83.99095516 100.87632516 83.9981617 99.64694977 84.00558662 C98.61909916 84.00553161 97.59124854 84.00547659 96.53225094 84.00541991 C93.04162294 84.45365179 90.63270338 85.60199832 87.61272335 87.38031673 C82.2046491 94.88043118 86.18982723 109.23293559 87.11272335 117.69281673 C87.39789882 120.3343582 87.67806009 122.97632361 87.95647335 125.61859798 C88.08215694 126.77400082 88.20784054 127.92940365 88.33733273 129.11981869 C88.59966125 132.22566749 88.66229448 135.26530214 88.61272335 138.38031673 C84.3004559 138.49751016 79.98860401 138.56790089 75.67522335 138.63031673 C74.46286007 138.66383236 73.25049679 138.69734798 72.00139523 138.73187923 C55.74767702 138.9080713 48.24219425 130.8297627 37.17102718 120.04196835 C33.42300697 116.3651858 29.70174607 112.66170691 25.9838171 108.95453548 C25.31454756 108.28809332 24.64527802 107.62165115 23.95572758 106.93501377 C20.42881734 103.42294225 16.90467058 99.90812703 13.38298702 96.39081478 C9.75843468 92.77179251 6.12465616 89.16218006 2.48875999 85.55455971 C-0.32412002 82.76030031 -3.13027255 79.95935837 -5.93462276 77.15654087 C-7.27213898 75.82204193 -8.61214478 74.49003319 -9.9547224 73.16062641 C-11.82555558 71.30687651 -13.68666414 69.44386152 -15.54572392 67.57831478 C-16.09583134 67.03742214 -16.64593876 66.4965295 -17.2127161 65.93924618 C-25.6498473 57.40970317 -25.5972966 49.20504145 -25.62751102 37.90106869 C-25.63716827 35.71732435 -25.6681922 33.53454169 -25.69977665 31.35101986 C-25.76752795 22.54964707 -25.81181071 13.47768385 -19.63727665 6.50531673 C-18.96438602 5.70480892 -18.96438602 5.70480892 -18.27790165 4.88812923 C-12.60532012 0.36412826 -6.96942576 -0.05476274 0 0 Z " fill="#0C679A" transform="translate(134.3872766494751,383.61968326568604)"/>
<path d="M0 0 C1.31387695 -0.0309375 1.31387695 -0.0309375 2.65429688 -0.0625 C3.50443359 -0.06765625 4.35457031 -0.0728125 5.23046875 -0.078125 C5.99125732 -0.0874707 6.7520459 -0.09681641 7.53588867 -0.10644531 C10.66696507 0.3837822 12.31419339 1.27470477 14.8125 3.25 C16.26837632 5.70262974 17.45181062 7.98532038 18.59765625 10.57421875 C18.93523956 11.30363678 19.27282288 12.03305481 19.62063599 12.78457642 C20.71861591 15.16306651 21.79647345 17.55013485 22.875 19.9375 C24.01750186 22.42289907 25.16545908 24.90572447 26.31410217 27.38829041 C27.07830673 29.04012691 27.8409533 30.69268509 28.60203552 32.34596252 C31.59155594 38.82661611 34.74775907 45.20958431 38 51.5625 C44.63467502 64.60195272 50.55376098 77.96379688 56.49072266 91.33105469 C57.548953 93.66799632 58.64223635 95.96781226 59.8125 98.25 C64.79895271 89.55760358 69.75041333 80.84552045 74.6875 72.125 C75.54444458 70.61377563 75.54444458 70.61377563 76.41870117 69.07202148 C76.95857666 68.11755127 77.49845215 67.16308105 78.0546875 66.1796875 C78.5379248 65.32616699 79.02116211 64.47264648 79.51904297 63.59326172 C80.67321494 61.50233258 81.76317817 59.39507383 82.8125 57.25 C81.79929687 56.14205078 81.79929687 56.14205078 80.765625 55.01171875 C72.05023595 45.23173045 68.53724757 37.31535666 68.3125 24.0625 C68.28422119 22.79696289 68.28422119 22.79696289 68.25537109 21.50585938 C68.31638681 15.64374581 69.50361998 11.14002437 72.8125 6.25 C80.20928238 -0.6055544 91.84282144 -0.07682078 101.375 0 C102.33857422 -0.00773438 103.30214844 -0.01546875 104.29492188 -0.0234375 C112.9741746 -0.00002751 123.57200648 0.32279685 130.25 6.6015625 C134.74747737 11.584563 135.00090359 15.69601498 134.69873047 22.2265625 C134.0250803 33.15949431 132.96449585 41.44766035 125.62890625 50.046875 C123.47848232 52.65513112 121.65363131 55.41749029 119.8125 58.25 C126.91541196 71.65705031 134.33277545 84.66395214 142.8125 97.25 C144.86481283 95.19768717 145.50500555 93.9088741 146.58544922 91.26513672 C146.92754425 90.44216095 147.26963928 89.61918518 147.62210083 88.77127075 C147.99172943 87.87479828 148.36135803 86.97832581 148.7421875 86.0546875 C153.6977821 74.2693525 159.26353084 62.82747409 164.9375 51.375 C166.83825241 47.52457639 168.73606864 43.67271213 170.6328125 39.8203125 C171.08429657 38.90419693 171.53578064 37.98808136 172.00094604 37.04420471 C175.71292929 29.4946782 179.30049768 21.89452347 182.8125 14.25 C183.28574707 13.22471191 183.75899414 12.19942383 184.24658203 11.14306641 C184.99120314 9.52956803 185.73471418 7.91555636 186.4765625 6.30078125 C188.35491211 3.41734984 189.8063329 2.0068509 192.8125 0.25 C196.32371184 -0.31266011 199.7640441 -0.2717523 203.3125 -0.1875 C204.30354736 -0.16993652 205.29459473 -0.15237305 206.31567383 -0.13427734 C225.78555334 0.4103124 243.22755407 8.13335364 256.8125 22.25 C257.44027344 22.82105469 258.06804687 23.39210937 258.71484375 23.98046875 C274.9296331 38.91794428 279.93362046 61.43949935 280.92288208 82.61248779 C281.05737118 87.45897238 281.05518211 92.3034746 281.01831055 97.15136719 C281.00006186 99.61664303 280.9978021 102.08153846 280.99804688 104.546875 C280.99312725 106.18489893 280.98729701 107.82292042 280.98046875 109.4609375 C280.97935593 110.16262054 280.9782431 110.86430359 280.97709656 111.58724976 C280.89860835 120.50046203 280.28219627 129.32577089 279.8125 138.25 C162.0025 138.25 44.1925 138.25 -77.1875 138.25 C-77.1875 44.51711636 -77.1875 44.51711636 -53.1875 20.25 C-37.88536289 6.15425544 -20.53736619 0.12251971 0 0 Z " fill="#0C679A" transform="translate(296.1875,218.75)"/>
<path d="M0 0 C99.99 0 199.98 0 303 0 C302.36663614 15.20073254 301.60383653 30.20994544 300.1796875 45.328125 C299.99787604 47.30631855 299.81659705 49.28456109 299.63580322 51.2628479 C299.15492019 56.50914934 298.66687084 61.75476025 298.17740631 67.00026703 C297.66563192 72.49992112 297.16107119 78.00023711 296.65576172 83.50048828 C295.53956223 95.6368692 294.4142052 107.77239039 293.28707886 119.90776062 C292.83717314 124.75387222 292.38822084 129.60007197 291.93945312 134.44628906 C291.81455033 135.79502357 291.81455033 135.79502357 291.68712425 137.17100525 C291.28318444 141.53376743 290.87957839 145.89656024 290.47647095 150.25939941 C290.36076028 151.51171104 290.36076028 151.51171104 290.24271202 152.7893219 C290.09017381 154.4403106 289.93765806 156.09130137 289.78516579 157.74229431 C289.35895421 162.3540082 288.93021064 166.96547649 288.4991169 171.57673645 C288.1670456 175.13173549 287.83684309 178.6869058 287.5078125 182.2421875 C287.4450349 182.92031998 287.38225731 183.59845245 287.31757736 184.2971344 C286.0990337 197.51124099 285.02494252 210.73644086 283.99539185 223.96652222 C283.9360358 224.71912701 283.87667976 225.4717318 283.81552505 226.24714279 C283.65515381 228.28142418 283.49715118 230.3158919 283.33932495 232.35037231 C283.00649075 235.93018844 282.53976791 239.44684741 282 243 C277.14464304 241.68426262 274.2311925 239.7620594 270.4375 236.5 C258.34733552 226.68994269 243.11614531 220.40430836 228 217 C230.10500505 212.4531891 232.32109624 208.45972533 235.3125 204.4375 C249.35837709 184.72504588 253.88817526 159.42735014 250.23071289 135.69873047 C246.74655861 116.61120852 238.08373731 98.31308175 225 84 C224.25234375 83.15953125 223.5046875 82.3190625 222.734375 81.453125 C205.56779908 63.14968974 180.96022641 53.0910228 156.09765625 51.796875 C130.47698115 51.29791448 106.53283649 59.05239187 87 76 C86.19046875 76.65355469 85.3809375 77.30710937 84.546875 77.98046875 C66.08513236 93.45233798 54.1673445 118.13245321 52 142 C50.41637164 170.17256363 59.60808131 192.86402222 75 216 C72.57768319 218.42231681 71.38877408 218.43270056 68.0625 219.0625 C55.23111475 222.13523846 43.02848149 228.43519435 32.8359375 236.76171875 C30.38770563 238.69400093 27.92094539 240.42082485 25.32275391 242.13989258 C24.51303131 242.67657059 23.70330872 243.2132486 22.86904907 243.76618958 C22.25226288 244.17334702 21.63547668 244.58050446 21 245 C20.93371399 244.26419205 20.86742798 243.52838409 20.7991333 242.77027893 C20.02059888 234.13187301 19.23990654 225.49366377 18.45764542 216.85559464 C18.31941447 215.3290662 18.18122821 213.80253372 18.04308701 212.27599716 C16.44216166 194.58671442 14.82480359 176.90034213 13.05435181 159.22705078 C11.57380979 144.44591711 10.30894816 129.6629175 9.21411133 114.84838867 C8.47666131 104.92553422 7.67084445 95.0104946 6.80859375 85.09765625 C6.70156631 83.86711014 6.59453888 82.63656403 6.48426819 81.36872864 C5.95728012 75.32684833 5.42555125 69.28541531 4.88891602 63.24438477 C3.03955781 42.17180621 1.54435474 21.10618138 0 0 Z " fill="#0C679A" transform="translate(246,493)"/>
<path d="M0 0 C20.50835067 17.35066297 33.9276122 38.23632969 37.9375 65.3125 C39.86992206 95.6875094 33.24695587 121.22009199 13.328125 144.60693359 C-4.13129573 164.26054702 -30.02502775 172.58125457 -55.51855469 174.49707031 C-82.4845927 176.01520692 -104.86218189 166.37473503 -125.25 148.93359375 C-143.48982129 131.93509363 -154.32370449 108.98929703 -155.37890625 84.15234375 C-156.17503073 53.39525062 -146.99897058 30.01310526 -126.0625 7.3125 C-94.18529404 -26.08535006 -35.60371754 -27.41372501 0 0 Z " fill="#0C679A" transform="translate(456.0625,18.6875)"/>
<path d="M0 0 C1.43894148 -0.00543608 2.87787737 -0.01256699 4.31680298 -0.02124023 C8.18469313 -0.03930043 12.05215114 -0.03247874 15.92004776 -0.01972389 C19.99252629 -0.00950545 24.06497098 -0.01901386 28.13745117 -0.02526855 C34.97288569 -0.03251948 41.80814661 -0.0230248 48.64355469 -0.00390625 C56.51500075 0.01785763 64.38603219 0.01080444 72.25746822 -0.01121187 C79.04942052 -0.02943917 85.84124893 -0.0318886 92.63321781 -0.0214572 C96.67501165 -0.01526231 100.71661143 -0.0142749 104.75839233 -0.02760315 C108.56063348 -0.03926861 112.36234681 -0.03094412 116.16453171 -0.00802612 C118.20274913 -0.00032608 120.24101189 -0.0120029 122.27920532 -0.02453613 C139.3984496 0.13063616 154.77842079 6.63092914 167.14453125 18.51757812 C184.81252966 38.66529561 183.14453125 55.48618082 183.14453125 83.51757812 C101.63453125 83.51757812 20.12453125 83.51757812 -63.85546875 83.51757812 C-63.85546875 35.25276406 -63.85546875 35.25276406 -47.23046875 18.26757812 C-33.70924227 5.07411315 -18.82712189 -0.11577149 0 0 Z " fill="#0C679A" transform="translate(63.85546875,739.482421875)"/>
<path d="M0 0 C1.43820034 -0.00599293 2.87639747 -0.01280022 4.31459045 -0.02035522 C8.20331271 -0.03794755 12.09194681 -0.04270781 15.98070502 -0.0439868 C18.41645 -0.04541313 20.8521729 -0.04969188 23.28791237 -0.05498123 C31.80328405 -0.07346115 40.31859331 -0.08165465 48.83398438 -0.08007812 C56.74222122 -0.0788782 64.65018449 -0.09995633 72.55835217 -0.13156545 C79.37141205 -0.15781631 86.18438309 -0.1684417 92.99749309 -0.16716731 C97.05615774 -0.16666013 101.11457919 -0.17220636 105.17319298 -0.19352341 C108.99584379 -0.21305441 112.81802317 -0.21293032 116.64069176 -0.19849014 C118.0333323 -0.196419 119.42600352 -0.20100023 120.81859207 -0.21321106 C138.67543016 -0.35948264 154.54604343 5.51735526 167.49731445 17.98583984 C185.49862971 36.71736719 183.7121582 57.28042718 183.7121582 83.29052734 C102.2021582 83.29052734 20.6921582 83.29052734 -63.2878418 83.29052734 C-63.2878418 36.34332367 -63.2878418 36.34332367 -46.69799805 18.67333984 C-32.89622214 5.0281481 -19.09400775 -0.01592979 0 0 Z " fill="#0C679A" transform="translate(611.287841796875,739.70947265625)"/>
<path d="M0 0 C1.42510405 -0.00763272 2.85020402 -0.01606211 4.27529907 -0.02522278 C8.12902349 -0.04707105 11.98266861 -0.05595413 15.83644795 -0.06104922 C18.25143752 -0.06470573 20.66640672 -0.07095257 23.08138847 -0.07805061 C31.5277382 -0.10251615 39.97402682 -0.11558974 48.42041016 -0.11914062 C56.25822743 -0.12276874 64.09565143 -0.15261939 71.93334872 -0.19454521 C78.68954059 -0.22940148 85.44560316 -0.24469174 92.20188421 -0.24538666 C96.22490904 -0.24617458 100.24753309 -0.25468643 104.27046394 -0.28338432 C108.06200505 -0.30982827 111.85282067 -0.31162641 115.64441299 -0.29572868 C117.67280451 -0.29308952 119.7011836 -0.31491928 121.72944641 -0.33792114 C138.72085317 -0.2047702 154.26337376 6.32919791 166.61303711 18.01342773 C184.60624148 36.57583717 182.83569336 58.02750253 182.83569336 83.30639648 C101.32569336 83.30639648 19.81569336 83.30639648 -64.16430664 83.30639648 C-64.16430664 35.55049097 -64.16430664 35.55049097 -47.86352539 17.88061523 C-34.11720889 5.14552202 -18.32867427 0.00624286 0 0 Z " fill="#0C679A" transform="translate(338.164306640625,739.693603515625)"/>
<path d="M0 0 C1.23814453 -0.02449219 2.47628906 -0.04898438 3.75195312 -0.07421875 C22.34281688 -0.13264996 37.86022047 7.41148887 50.9296875 20.32421875 C64.95940426 34.81310641 70.23547994 52.53947236 70.01953125 72.30859375 C69.34575843 89.467066 63.37124892 103.51647209 51.8125 116.375 C51.29429687 116.98601562 50.77609375 117.59703125 50.2421875 118.2265625 C39.64171574 129.89240831 23.34208981 137.58513399 7.70483398 138.49804688 C-12.14934724 139.20782033 -30.6416179 135.80274058 -45.6875 122 C-58.32931429 109.79793741 -67.93913173 95.46470084 -68.5234375 77.48828125 C-68.5472076 74.88809688 -68.55993181 72.28779175 -68.5625 69.6875 C-68.58699219 68.40166016 -68.61148437 67.11582031 -68.63671875 65.79101562 C-68.69267921 47.33338948 -61.39853782 32.15563342 -48.78515625 18.92529297 C-34.95758942 5.50765095 -19.00230906 0.01947956 0 0 Z " fill="#0C679A" transform="translate(397.1875,575.625)"/>
<path d="M0 0 C1.23814453 -0.02449219 2.47628906 -0.04898438 3.75195312 -0.07421875 C20.98196241 -0.12837279 34.99996759 6.16946318 47.8125 17.375 C48.42867187 17.89578125 49.04484375 18.4165625 49.6796875 18.953125 C61.32709114 29.58070989 69.02187581 45.83242343 69.93554688 61.48266602 C70.69646071 82.76737466 66.3369419 100.21728752 51.8125 116.375 C51.29429687 116.98601562 50.77609375 117.59703125 50.2421875 118.2265625 C39.64171574 129.89240831 23.34208981 137.58513399 7.70483398 138.49804688 C-13.57987466 139.25896071 -31.02978752 134.8994419 -47.1875 120.375 C-47.79851563 119.85679687 -48.40953125 119.33859375 -49.0390625 118.8046875 C-59.44196491 109.35182184 -67.36684741 94.98530303 -68.44921875 80.99121094 C-68.63125376 77.07644691 -68.72068887 73.16822114 -68.75 69.25 C-68.77235718 67.35604492 -68.77235718 67.35604492 -68.79516602 65.42382812 C-68.58996968 46.8031711 -61.16484631 32.41680333 -48.1875 19.375 C-47.45015625 18.60285156 -46.7128125 17.83070313 -45.953125 17.03515625 C-32.98398387 4.30537846 -17.74483524 0.0181905 0 0 Z " fill="#0C679A" transform="translate(671.1875,575.625)"/>
<path d="M0 0 C1.23814453 -0.02449219 2.47628906 -0.04898438 3.75195312 -0.07421875 C22.66197456 -0.13365308 37.61915635 7.8346014 51.15625 20.58203125 C55.68353854 25.25661171 59.10514385 30.18289652 62.1875 35.875 C62.50928223 36.46740479 62.83106445 37.05980957 63.16259766 37.67016602 C68.34618697 47.76733748 69.38926257 57.2853199 69.3125 68.5625 C69.31073761 69.25098022 69.30897522 69.93946045 69.30715942 70.64880371 C69.24797378 80.99379202 68.69804835 90.03900302 63.8125 99.375 C63.31621094 100.33277344 62.81992188 101.29054688 62.30859375 102.27734375 C53.01913242 118.23730985 38.2240322 130.70573378 20.60546875 136.4140625 C0.83490421 141.33944179 -19.72719143 138.94538463 -37.30517578 128.59765625 C-42.54538719 125.19389766 -46.86899735 120.85271012 -51.1875 116.375 C-51.85136719 115.74207031 -52.51523438 115.10914063 -53.19921875 114.45703125 C-65.18649756 102.2542508 -69.17942445 85.17682194 -69.5 68.625 C-68.99897044 48.72995119 -61.66117055 31.27864585 -47.1875 17.375 C-32.8298896 4.9771209 -18.68711132 0.01915644 0 0 Z " fill="#0C679A" transform="translate(123.1875,575.625)"/>
</svg>
